<svg width="76" height="116" viewBox="0 0 76 116" fill="none" xmlns="http://www.w3.org/2000/svg">
<path d="M26.9758 21.1989C30.257 23.7205 37.7611 22.0179 43.7453 17.4025C49.7345 12.784 51.9227 7.00057 48.6445 4.48003C47.1267 3.30902 44.6941 3.05989 41.9309 3.57227C40.8549 2.63728 39.1537 2.19046 37.4846 2.55054L31.864 3.76391C29.5376 4.26822 28.1771 6.12509 28.8303 7.92043L29.6599 10.206C25.4029 14.4018 24.1395 19.0203 26.9758 21.1989ZM40.0594 14.5108C44.2673 13.0493 46.5546 9.87514 45.4154 7.24163C45.5096 7.37174 45.6048 7.49681 45.6859 7.63197C47.2689 10.3371 44.9606 13.7775 40.5293 15.3136C36.0969 16.8528 31.2188 15.9097 29.6368 13.2066C29.5577 13.0715 29.4956 12.9333 29.4354 12.7951C31.2428 15.1926 35.8515 15.9753 40.0594 14.5108ZM40.1285 24.8733H37.3413V26.6182H40.1285V24.8733ZM40.2387 52.7163V28.3642H37.4535V52.7163L38.806 56.6318L40.2387 52.7163ZM19.633 103.531C14.7268 107.865 22.252 114.646 27.1602 110.314C31.1947 106.752 34.4458 102.748 37.187 98.4794C35.2273 94.9997 32.9741 90.9773 32.2828 87.1536C29.3553 92.8856 24.7527 99.016 19.633 103.531ZM39.4993 72.2492C44.2272 80.532 43.1672 79.4952 45.5056 82.5392C48.4531 76.3271 50.4138 68.2491 50.8466 61.2139C51.047 60.6541 50.9819 60.2003 50.7024 59.822C50.8907 59.5608 51.017 59.2078 51.017 58.6541V40.1862L75.2154 4.85423C73.0293 -0.446075 67.7293 0.00982164 67.7293 0.00982164C62.8191 6.7938 53.707 19.0485 47.7979 25.0539C47.1537 24.8078 46.4464 24.6676 45.704 24.6676H44.8173L42.3367 30.0324V58.3454C40.1706 58.41 37.8302 58.5996 35.599 58.8376V30.3522L32.7637 24.6706H29.9274C29.4134 24.6706 28.9305 24.7553 28.4656 24.8753C22.2029 19.2079 12.4525 9.4495 7.64552 2.8148C7.64552 2.8148 -1.29226 0.576666 0.159469 6.89063C2.18527 9.36276 15.4732 27.8125 24.6064 38.3636V58.6551C24.6064 59.0898 24.6915 59.3934 24.8118 59.6415C24.8418 60.3506 25.1043 62.0148 25.8647 65.5308C26.9157 74.1727 38.1248 97.5918 38.1648 97.5273C40.8439 102.967 43.8535 108.266 47.326 113.374C50.8967 118.641 60.1 113.827 56.5093 108.534C51.587 101.281 41.2747 78.1658 39.4993 72.2492ZM25.484 60.2668C25.484 60.2668 25.482 60.2638 25.482 60.2608C25.484 60.2638 25.486 60.2658 25.489 60.2668H25.484Z" fill="#FF2A70"/>
</svg>
